# xmcd
#
# Track frame offsets: 
#        183
#        3773
#        37430
#        71860
#        105050
#        134995
#        158663
#        185788
#
# Disc length: 2861 seconds
#
# Revision: 4
# Processed by: cddbd v1.5.2PL0 Copyright (c) Steve Scherf et al.
# Submitted via: ExactAudioCopyFreeDBPlugin 1.0
#
DISCID=6f0b2b08
DTITLE=Various Artist - Kool Jazz Live From Midem
DYEAR=1983
DGENRE=Jazz
TTITLE0=Introduction
TTITLE1=Pat Metheny and The Heath Brothers - Move To The Groove
TTITLE2=The Dave Brubeck Quartet - A Lover Man
TTITLE3=The Dave Brubeck Quartet - Blue Rondo a La Turk
TTITLE4=The Dave Brubeck Quartet - Ol' Bill Basie
TTITLE5=B.B. King and his Orchestra - The Thrill Is Gone
TTITLE6=B.B. King and his Orchestra - Guess Who
TTITLE7=B.B. King and his Orchestra - Payin' The Cost To Be The Boss
EXTD=
EXTT0=
EXTT1=
EXTT2=
EXTT3=
EXTT4=
EXTT5=
EXTT6=
EXTT7=
PLAYORDER=
